<svg width="294" height="24" viewBox="0 0 294 24" fill="none" xmlns="http://www.w3.org/2000/svg">
                            <path d="M146.26 0.813935C146.657 0.377499 147.343 0.377498 147.74 0.813934L157.388 11.4273C157.735 11.8087 157.735 12.3913 157.388 12.7727L147.74 23.3861C147.343 23.8225 146.657 23.8225 146.26 23.3861L136.612 12.7727C136.265 12.3913 136.265 11.8087 136.612 11.4273L146.26 0.813935Z" fill="#727E7A"/>
                            <path d="M167.266 4.79246C167.662 4.365 168.338 4.36501 168.734 4.79246L174.371 10.8806C174.726 11.264 174.726 11.856 174.371 12.2394L168.734 18.3275C168.338 18.755 167.662 18.755 167.266 18.3275L161.629 12.2394C161.274 11.856 161.274 11.264 161.629 10.8806L167.266 4.79246Z" fill="#44534E"/>
                            <path d="M125.266 4.79246C125.662 4.365 126.338 4.36501 126.734 4.79246L132.371 10.8806C132.726 11.264 132.726 11.856 132.371 12.2394L126.734 18.3275C126.338 18.755 125.662 18.755 125.266 18.3275L119.629 12.2394C119.274 11.856 119.274 11.264 119.629 10.8806L125.266 4.79246Z" fill="#44534E"/>
                            <line x1="293" y1="13" x2="201" y2="13" stroke="#44534E" stroke-width="2" stroke-linecap="round"/>
                            <line x1="93" y1="13" x2="1" y2="13" stroke="#44534E" stroke-width="2" stroke-linecap="round"/>
                            </svg>