<svg width="173" height="20" viewBox="0 0 173 20" fill="none" xmlns="http://www.w3.org/2000/svg">
                                <path d="M145.26 0.813935C145.657 0.377498 146.343 0.377498 146.74 0.813934L154.388 9.22733C154.735 9.60875 154.735 10.1913 154.388 10.5727L146.74 18.9861C146.343 19.4225 145.657 19.4225 145.26 18.9861L137.612 10.5727C137.265 10.1913 137.265 9.60875 137.612 9.22733L145.26 0.813935Z" fill="#727E7A"/>
                                <path d="M166.266 4.79246C166.662 4.36501 167.338 4.36501 167.734 4.79246L172.371 9.80059C172.726 10.184 172.726 10.776 172.371 11.1594L167.734 16.1675C167.338 16.595 166.662 16.595 166.266 16.1675L161.629 11.1594C161.274 10.776 161.274 10.184 161.629 9.80059L166.266 4.79246Z" fill="#44534E"/>
                                <path d="M124.266 4.79246C124.662 4.36501 125.338 4.36501 125.734 4.79246L130.371 9.80059C130.726 10.184 130.726 10.776 130.371 11.1594L125.734 16.1675C125.338 16.595 124.662 16.595 124.266 16.1675L119.629 11.1594C119.274 10.776 119.274 10.184 119.629 9.80059L124.266 4.79246Z" fill="#44534E"/>
                                <line x1="93" y1="11" x2="1" y2="11" stroke="#44534E" stroke-width="2" stroke-linecap="round"/>
                                </svg>