<svg width="173" height="20" viewBox="0 0 173 20" fill="none" xmlns="http://www.w3.org/2000/svg">
                                <path d="M26.2601 0.813935C26.6568 0.377498 27.3432 0.377498 27.7399 0.813934L35.3885 9.22733C35.7352 9.60875 35.7352 10.1913 35.3885 10.5727L27.7399 18.9861C27.3432 19.4225 26.6568 19.4225 26.2601 18.9861L18.6115 10.5727C18.2648 10.1913 18.2648 9.60875 18.6115 9.22733L26.2601 0.813935Z" fill="#727E7A"/>
                                <path d="M47.2662 4.79246C47.662 4.36501 48.338 4.36501 48.7338 4.79246L53.3709 9.80059C53.7259 10.184 53.7259 10.776 53.3709 11.1594L48.7338 16.1675C48.338 16.595 47.662 16.595 47.2662 16.1675L42.6291 11.1594C42.2741 10.776 42.2741 10.184 42.6291 9.80059L47.2662 4.79246Z" fill="#44534E"/>
                                <path d="M5.26624 4.79246C5.66203 4.36501 6.33797 4.36501 6.73376 4.79246L11.3709 9.80059C11.7259 10.184 11.7259 10.776 11.3709 11.1594L6.73376 16.1675C6.33797 16.595 5.66203 16.595 5.26624 16.1675L0.629082 11.1594C0.274096 10.776 0.274096 10.184 0.629081 9.80059L5.26624 4.79246Z" fill="#44534E"/>
                                <line x1="172" y1="11" x2="80" y2="11" stroke="#44534E" stroke-width="2" stroke-linecap="round"/>
                                </svg>